<?xml version="1.0" encoding="iso-8859-1"?>
<!-- Generator: Adobe Illustrator 19.0.0, SVG Export Plug-In . SVG Version: 6.00 Build 0)  -->
<svg version="1.1" id="Capa_1" xmlns="http://www.w3.org/2000/svg" xmlns:xlink="http://www.w3.org/1999/xlink" x="0px" y="0px"
	 viewBox="0 0 512 512" style="enable-background:new 0 0 512 512;" xml:space="preserve">
<g>
	<g>
		<path d="M390.418,37.595c31.483,25.41,53.317,62.143,59.566,103.943C486.449,125.058,512,88.519,512,45.976V0.024L390.418,37.595z
			"/>
	</g>
</g>
<g>
	<g>
		<polygon points="256,176.362 212.436,285.288 235.272,330.976 276.728,330.976 299.564,285.288 		"/>
	</g>
</g>
<g>
	<g>
		<path d="M444.289,384.808l-13.694-102.509C424.223,244.082,421,205.073,421,165.976c0-74.443-60.557-135-135-135h-60
			c-74.443,0-135,60.557-135,135v0.41c0,38.687-3.223,77.695-9.668,116.382L67.709,384.809
			c-4.775,35.625,16.509,69.727,50.61,81.079l39.697,13.242c21.621,20.273,50.713,32.846,80.405,32.846h35.156
			c29.692,0,58.784-12.572,80.405-32.846l39.697-13.228C427.781,454.535,449.065,420.433,444.289,384.808z M151,300.976h-30v-30h30
			V300.976z M211,435.976c0-8.276-6.724-15-15-15v-30c24.814,0,45,20.186,45,45H211z M316,420.976c-8.276,0-15,6.724-15,15h-30
			c0-24.814,20.186-45,45-45V420.976z M295.272,360.976h-78.545l-37.163-74.312L256,95.59l76.436,191.074L295.272,360.976z
			 M391,300.976h-30v-30h30V300.976z"/>
	</g>
</g>
<g>
	<g>
		<path d="M0,0.024v45.952c0,42.563,25.573,79.122,62.065,95.59c6.319-41.806,28.157-78.532,59.603-103.943L0,0.024z"/>
	</g>
</g>
<g>
</g>
<g>
</g>
<g>
</g>
<g>
</g>
<g>
</g>
<g>
</g>
<g>
</g>
<g>
</g>
<g>
</g>
<g>
</g>
<g>
</g>
<g>
</g>
<g>
</g>
<g>
</g>
<g>
</g>
</svg>
